<svg width="42" height="47" viewBox="0 0 42 47" fill="none" xmlns="http://www.w3.org/2000/svg">
<path d="M8.52246 35.5C8.24632 35.5 8.02246 35.2761 8.02246 35V1C8.02246 0.723858 8.24632 0.5 8.52246 0.5H15.2986C15.5747 0.5 15.7986 0.723858 15.7986 1V35C15.7986 35.2761 15.5747 35.5 15.2986 35.5H8.52246ZM17.9254 35.5C17.6493 35.5 17.4254 35.2761 17.4254 35V8.57895C17.4254 8.3028 17.6493 8.07895 17.9254 8.07895H24.7016C24.9777 8.07895 25.2016 8.3028 25.2016 8.57895V35C25.2016 35.2761 24.9777 35.5 24.7016 35.5H17.9254ZM27.3284 35.5C27.0523 35.5 26.8284 35.2761 26.8284 35V6.05263C26.8284 5.77649 27.0523 5.55263 27.3284 5.55263H34.1046C34.3807 5.55263 34.6045 5.77649 34.6045 6.05263V35C34.6045 35.2761 34.3807 35.5 34.1045 35.5H27.3284Z" fill="#FED5C8" stroke="#223967"/>
<path d="M12.3319 39.75V45H11.4262V39.75H12.3319ZM14.3603 41.3018V45H13.4545V41.3018H14.3603ZM13.393 40.3345C13.393 40.2 13.4386 40.0884 13.5297 39.9995C13.6231 39.9106 13.7485 39.8662 13.9057 39.8662C14.0629 39.8662 14.1871 39.9106 14.2782 39.9995C14.3717 40.0884 14.4184 40.2 14.4184 40.3345C14.4184 40.4666 14.3717 40.5771 14.2782 40.666C14.1871 40.7549 14.0629 40.7993 13.9057 40.7993C13.7485 40.7993 13.6231 40.7549 13.5297 40.666C13.4386 40.5771 13.393 40.4666 13.393 40.3345ZM15.4282 39.75H16.3339V44.1831L16.2451 45H15.4282V39.75ZM18.7129 43.1133V43.1851C18.7129 43.4608 18.6821 43.7137 18.6206 43.9438C18.5613 44.174 18.4713 44.3734 18.3505 44.542C18.2298 44.7083 18.0794 44.8382 17.8994 44.9316C17.7216 45.0228 17.5131 45.0684 17.2739 45.0684C17.046 45.0684 16.8478 45.0239 16.6792 44.9351C16.5128 44.8462 16.3727 44.7209 16.2587 44.5591C16.1448 44.395 16.0537 44.2025 15.9853 43.9814C15.917 43.7581 15.8657 43.5143 15.8315 43.25V43.0552C15.8657 42.7886 15.917 42.5448 15.9853 42.3237C16.0537 42.1027 16.1448 41.9102 16.2587 41.7461C16.3727 41.582 16.5128 41.4556 16.6792 41.3667C16.8455 41.2778 17.0415 41.2334 17.2671 41.2334C17.5086 41.2334 17.7194 41.2801 17.8994 41.3735C18.0817 41.4647 18.2321 41.5946 18.3505 41.7632C18.4713 41.9295 18.5613 42.1278 18.6206 42.3579C18.6821 42.5858 18.7129 42.8376 18.7129 43.1133ZM17.8071 43.1851V43.1133C17.8071 42.9561 17.7946 42.8079 17.7695 42.6689C17.7444 42.5277 17.7034 42.4035 17.6464 42.2964C17.5895 42.1893 17.512 42.105 17.414 42.0435C17.316 41.9819 17.193 41.9512 17.0449 41.9512C16.9036 41.9512 16.7828 41.9751 16.6826 42.0229C16.5846 42.0708 16.5026 42.1369 16.4365 42.2212C16.3727 42.3055 16.3226 42.4046 16.2861 42.5186C16.2519 42.6325 16.2291 42.7555 16.2177 42.8877V43.4209C16.2337 43.5964 16.2713 43.7547 16.3305 43.896C16.3898 44.035 16.4775 44.1455 16.5937 44.2275C16.7122 44.3096 16.8649 44.3506 17.0517 44.3506C17.1976 44.3506 17.3195 44.3221 17.4174 44.2651C17.5154 44.2059 17.5929 44.1239 17.6499 44.019C17.7068 43.9119 17.7467 43.7878 17.7695 43.6465C17.7946 43.5052 17.8071 43.3514 17.8071 43.1851ZM20.4814 42.0571V45H19.5791V41.3018H20.4336L20.4814 42.0571ZM21.606 41.2778L21.5923 42.1187C21.5422 42.1095 21.4852 42.1027 21.4214 42.0981C21.3599 42.0936 21.3018 42.0913 21.2471 42.0913C21.1081 42.0913 20.9862 42.1107 20.8813 42.1494C20.7765 42.1859 20.6888 42.2394 20.6182 42.3101C20.5498 42.3807 20.4974 42.4673 20.4609 42.5698C20.4245 42.6701 20.404 42.784 20.3994 42.9116L20.2046 42.8877C20.2046 42.653 20.2285 42.4354 20.2764 42.2349C20.3242 42.0343 20.3937 41.8589 20.4849 41.7085C20.576 41.5581 20.6899 41.4419 20.8267 41.3599C20.9657 41.2756 21.1252 41.2334 21.3052 41.2334C21.3553 41.2334 21.4089 41.238 21.4658 41.2471C21.5251 41.2539 21.5718 41.2642 21.606 41.2778ZM24.2325 44.2139V42.5083C24.2325 42.383 24.2108 42.2747 24.1675 42.1836C24.1242 42.0924 24.0581 42.0218 23.9693 41.9717C23.8804 41.9215 23.7676 41.8965 23.6309 41.8965C23.5101 41.8965 23.4042 41.917 23.313 41.958C23.2242 41.999 23.1558 42.0571 23.1079 42.1323C23.0601 42.2052 23.0362 42.2896 23.0362 42.3853H22.1304C22.1304 42.2326 22.1669 42.0879 22.2398 41.9512C22.3127 41.8122 22.4164 41.6891 22.5508 41.582C22.6875 41.4727 22.8505 41.3872 23.0396 41.3257C23.231 41.2642 23.4452 41.2334 23.6822 41.2334C23.9624 41.2334 24.212 41.2812 24.4307 41.377C24.6517 41.4704 24.8249 41.6117 24.9502 41.8008C25.0778 41.9899 25.1416 42.228 25.1416 42.5151V44.1284C25.1416 44.313 25.153 44.4714 25.1758 44.6035C25.2009 44.7334 25.2373 44.8462 25.2852 44.9419V45H24.3658C24.3225 44.9066 24.2894 44.7881 24.2666 44.6445C24.2439 44.4987 24.2325 44.3551 24.2325 44.2139ZM24.3589 42.7476L24.3658 43.2842H23.795C23.6537 43.2842 23.5295 43.299 23.4224 43.3286C23.3153 43.356 23.2276 43.397 23.1592 43.4517C23.0909 43.5041 23.0396 43.5679 23.0054 43.6431C22.9712 43.716 22.9541 43.7992 22.9541 43.8926C22.9541 43.9837 22.9746 44.0658 23.0157 44.1387C23.059 44.2116 23.1205 44.2697 23.2002 44.313C23.2823 44.354 23.378 44.3745 23.4873 44.3745C23.6468 44.3745 23.7858 44.3426 23.9043 44.2788C24.0228 44.2127 24.1151 44.133 24.1812 44.0396C24.2473 43.9461 24.2826 43.8573 24.2871 43.7729L24.5469 44.1626C24.515 44.256 24.4672 44.3551 24.4034 44.46C24.3396 44.5648 24.2575 44.6628 24.1573 44.7539C24.057 44.8451 23.9362 44.9202 23.795 44.9795C23.6537 45.0387 23.4896 45.0684 23.3028 45.0684C23.0635 45.0684 22.8493 45.0205 22.6602 44.9248C22.4711 44.8291 22.3218 44.6981 22.2124 44.5317C22.1031 44.3654 22.0484 44.1763 22.0484 43.9644C22.0484 43.7684 22.0848 43.5952 22.1578 43.4448C22.2307 43.2944 22.3389 43.168 22.4825 43.0654C22.626 42.9606 22.8038 42.882 23.0157 42.8296C23.2299 42.7749 23.4748 42.7476 23.7505 42.7476H24.3589ZM27.0675 42.0571V45H26.1651V41.3018H27.0196L27.0675 42.0571ZM28.192 41.2778L28.1783 42.1187C28.1282 42.1095 28.0712 42.1027 28.0074 42.0981C27.9459 42.0936 27.8878 42.0913 27.8331 42.0913C27.6941 42.0913 27.5722 42.1107 27.4674 42.1494C27.3625 42.1859 27.2748 42.2394 27.2042 42.3101C27.1358 42.3807 27.0834 42.4673 27.047 42.5698C27.0105 42.6701 26.99 42.784 26.9854 42.9116L26.7906 42.8877C26.7906 42.653 26.8145 42.4354 26.8624 42.2349C26.9102 42.0343 26.9797 41.8589 27.0709 41.7085C27.162 41.5581 27.276 41.4419 27.4127 41.3599C27.5517 41.2756 27.7112 41.2334 27.8912 41.2334C27.9413 41.2334 27.9949 41.238 28.0518 41.2471C28.1111 41.2539 28.1578 41.2642 28.192 41.2778ZM30.0426 44.5898L31.0338 41.3018H32.0011L30.5177 45.5605C30.4835 45.6517 30.4391 45.7508 30.3844 45.8579C30.332 45.965 30.2613 46.0664 30.1725 46.1621C30.0836 46.2601 29.972 46.3398 29.8375 46.4014C29.7054 46.4629 29.5447 46.4937 29.3556 46.4937C29.2736 46.4937 29.2006 46.488 29.1368 46.4766C29.073 46.4652 29.0058 46.4504 28.9352 46.4321V45.7554C28.958 45.7576 28.9842 45.7588 29.0138 45.7588C29.0457 45.7611 29.073 45.7622 29.0958 45.7622C29.228 45.7622 29.3374 45.7463 29.4239 45.7144C29.5105 45.6847 29.58 45.6357 29.6324 45.5674C29.6871 45.5013 29.7327 45.4147 29.7692 45.3076L30.0426 44.5898ZM29.5538 41.3018L30.3912 44.0259L30.5382 44.9795L29.9161 45.0923L28.5797 41.3018H29.5538Z" fill="#A74F2A"/>
</svg>
