<svg width="21" height="8" viewBox="0 0 21 8" fill="none" xmlns="http://www.w3.org/2000/svg">
<path d="M1.33191 0.75V6H0.426152V0.75H1.33191ZM3.36027 2.30176V6H2.45451V2.30176H3.36027ZM2.39299 1.33447C2.39299 1.20003 2.43856 1.08838 2.52971 0.999512C2.62313 0.910645 2.74846 0.866211 2.90568 0.866211C3.06291 0.866211 3.1871 0.910645 3.27824 0.999512C3.37167 1.08838 3.41838 1.20003 3.41838 1.33447C3.41838 1.46663 3.37167 1.57715 3.27824 1.66602C3.1871 1.75488 3.06291 1.79932 2.90568 1.79932C2.74846 1.79932 2.62313 1.75488 2.52971 1.66602C2.43856 1.57715 2.39299 1.46663 2.39299 1.33447ZM4.42818 0.75H5.33395V5.18311L5.24508 6H4.42818V0.75ZM7.71285 4.11328V4.18506C7.71285 4.46077 7.68209 4.7137 7.62057 4.94385C7.56132 5.17399 7.47132 5.37337 7.35055 5.54199C7.22978 5.70833 7.07939 5.83822 6.89937 5.93164C6.72164 6.02279 6.51314 6.06836 6.27389 6.06836C6.04602 6.06836 5.84778 6.02393 5.67916 5.93506C5.51282 5.84619 5.37268 5.72087 5.25875 5.55908C5.14482 5.39502 5.05367 5.20247 4.98531 4.98145C4.91695 4.75814 4.86568 4.51432 4.8315 4.25V4.05518C4.86568 3.78857 4.91695 3.54476 4.98531 3.32373C5.05367 3.1027 5.14482 2.91016 5.25875 2.74609C5.37268 2.58203 5.51282 2.45557 5.67916 2.3667C5.8455 2.27783 6.04146 2.2334 6.26705 2.2334C6.50859 2.2334 6.71936 2.28011 6.89937 2.37354C7.08167 2.46468 7.23206 2.59456 7.35055 2.76318C7.47132 2.92952 7.56132 3.12777 7.62057 3.35791C7.68209 3.58577 7.71285 3.83757 7.71285 4.11328ZM6.80709 4.18506V4.11328C6.80709 3.95605 6.79456 3.80794 6.76949 3.66895C6.74443 3.52767 6.70341 3.40348 6.64645 3.29639C6.58948 3.18929 6.51201 3.10498 6.41402 3.04346C6.31604 2.98193 6.19299 2.95117 6.04488 2.95117C5.90361 2.95117 5.78284 2.9751 5.68258 3.02295C5.5846 3.0708 5.50257 3.13688 5.43648 3.22119C5.37268 3.3055 5.32255 3.40462 5.28609 3.51855C5.25191 3.63249 5.22913 3.75553 5.21773 3.8877V4.4209C5.23368 4.59635 5.27128 4.75472 5.33053 4.896C5.38977 5.03499 5.4775 5.14551 5.59371 5.22754C5.7122 5.30957 5.86487 5.35059 6.05172 5.35059C6.19755 5.35059 6.31946 5.3221 6.41744 5.26514C6.51542 5.20589 6.5929 5.12386 6.64986 5.01904C6.70683 4.91195 6.74671 4.78776 6.76949 4.64648C6.79456 4.50521 6.80709 4.3514 6.80709 4.18506ZM9.48145 3.05713V6H8.5791V2.30176H9.43359L9.48145 3.05713ZM10.606 2.27783L10.5923 3.11865C10.5422 3.10954 10.4852 3.1027 10.4214 3.09814C10.3599 3.09359 10.3018 3.09131 10.2471 3.09131C10.1081 3.09131 9.98617 3.11068 9.88135 3.14941C9.77653 3.18587 9.6888 3.23942 9.61816 3.31006C9.5498 3.3807 9.4974 3.46729 9.46094 3.56982C9.42448 3.67008 9.40397 3.78402 9.39941 3.91162L9.20459 3.8877C9.20459 3.65299 9.22852 3.43538 9.27637 3.23486C9.32422 3.03434 9.39372 2.85889 9.48486 2.7085C9.57601 2.55811 9.68994 2.44189 9.82666 2.35986C9.96566 2.27555 10.1252 2.2334 10.3052 2.2334C10.3553 2.2334 10.4089 2.23796 10.4658 2.24707C10.5251 2.25391 10.5718 2.26416 10.606 2.27783ZM13.2325 5.21387V3.5083C13.2325 3.38298 13.2108 3.27474 13.1675 3.18359C13.1242 3.09245 13.0581 3.02181 12.9693 2.97168C12.8804 2.92155 12.7676 2.89648 12.6309 2.89648C12.5101 2.89648 12.4042 2.91699 12.313 2.95801C12.2242 2.99902 12.1558 3.05713 12.1079 3.13232C12.0601 3.20524 12.0362 3.28955 12.0362 3.38525H11.1304C11.1304 3.23258 11.1669 3.08789 11.2398 2.95117C11.3127 2.81217 11.4164 2.68913 11.5508 2.58203C11.6875 2.47266 11.8505 2.38721 12.0396 2.32568C12.231 2.26416 12.4452 2.2334 12.6822 2.2334C12.9624 2.2334 13.212 2.28125 13.4307 2.37695C13.6517 2.47038 13.8249 2.61165 13.9502 2.80078C14.0778 2.98991 14.1416 3.22803 14.1416 3.51514V5.12842C14.1416 5.31299 14.153 5.47135 14.1758 5.60352C14.2009 5.7334 14.2373 5.84619 14.2852 5.94189V6H13.3658C13.3225 5.90658 13.2894 5.78809 13.2666 5.64453C13.2439 5.4987 13.2325 5.35514 13.2325 5.21387ZM13.3589 3.74756L13.3658 4.28418H12.795C12.6537 4.28418 12.5295 4.29899 12.4224 4.32861C12.3153 4.35596 12.2276 4.39697 12.1592 4.45166C12.0909 4.50407 12.0396 4.56787 12.0054 4.64307C11.9712 4.71598 11.9541 4.79915 11.9541 4.89258C11.9541 4.98372 11.9746 5.06576 12.0157 5.13867C12.059 5.21159 12.1205 5.26969 12.2002 5.31299C12.2823 5.354 12.378 5.37451 12.4873 5.37451C12.6468 5.37451 12.7858 5.34261 12.9043 5.27881C13.0228 5.21273 13.1151 5.13298 13.1812 5.03955C13.2473 4.94613 13.2826 4.85726 13.2871 4.77295L13.5469 5.1626C13.515 5.25602 13.4672 5.35514 13.4034 5.45996C13.3396 5.56478 13.2575 5.66276 13.1573 5.75391C13.057 5.84505 12.9362 5.92025 12.795 5.97949C12.6537 6.03874 12.4896 6.06836 12.3028 6.06836C12.0635 6.06836 11.8493 6.02051 11.6602 5.9248C11.4711 5.8291 11.3218 5.69808 11.2124 5.53174C11.1031 5.3654 11.0484 5.17627 11.0484 4.96436C11.0484 4.76839 11.0848 4.59521 11.1578 4.44482C11.2307 4.29443 11.3389 4.16797 11.4825 4.06543C11.626 3.96061 11.8038 3.882 12.0157 3.82959C12.2299 3.7749 12.4748 3.74756 12.7505 3.74756H13.3589ZM16.0675 3.05713V6H15.1651V2.30176H16.0196L16.0675 3.05713ZM17.192 2.27783L17.1783 3.11865C17.1282 3.10954 17.0712 3.1027 17.0074 3.09814C16.9459 3.09359 16.8878 3.09131 16.8331 3.09131C16.6941 3.09131 16.5722 3.11068 16.4674 3.14941C16.3625 3.18587 16.2748 3.23942 16.2042 3.31006C16.1358 3.3807 16.0834 3.46729 16.047 3.56982C16.0105 3.67008 15.99 3.78402 15.9854 3.91162L15.7906 3.8877C15.7906 3.65299 15.8145 3.43538 15.8624 3.23486C15.9102 3.03434 15.9797 2.85889 16.0709 2.7085C16.162 2.55811 16.276 2.44189 16.4127 2.35986C16.5517 2.27555 16.7112 2.2334 16.8912 2.2334C16.9413 2.2334 16.9949 2.23796 17.0518 2.24707C17.1111 2.25391 17.1578 2.26416 17.192 2.27783ZM19.0426 5.58984L20.0338 2.30176H21.0011L19.5177 6.56055C19.4835 6.65169 19.4391 6.75081 19.3844 6.85791C19.332 6.96501 19.2613 7.06641 19.1725 7.16211C19.0836 7.26009 18.972 7.33984 18.8375 7.40137C18.7054 7.46289 18.5447 7.49365 18.3556 7.49365C18.2736 7.49365 18.2006 7.48796 18.1368 7.47656C18.073 7.46517 18.0058 7.45036 17.9352 7.43213V6.75537C17.958 6.75765 17.9842 6.75879 18.0138 6.75879C18.0457 6.76107 18.073 6.76221 18.0958 6.76221C18.228 6.76221 18.3374 6.74626 18.4239 6.71436C18.5105 6.68473 18.58 6.63574 18.6324 6.56738C18.6871 6.5013 18.7327 6.41471 18.7692 6.30762L19.0426 5.58984ZM18.5538 2.30176L19.3912 5.02588L19.5382 5.97949L18.9161 6.09229L17.5797 2.30176H18.5538Z" fill="#A74F2A"/>
</svg>
